<svg id="clockFace" data-name="Ebene 1" xmlns="http://www.w3.org/2000/svg" viewBox="0 0 1080 1080"><defs><style>.cls-1{fill:none;stroke:#1d1d1b;stroke-miterlimit:10;stroke-width:18px;}.cls-2{fill:#1d1d1b;}</style></defs><path class="cls-1" d="M904.87,174.76C807.41,77.3,677.83,23.63,540,23.63S272.59,77.3,175.13,174.76,24,401.8,24,539.62,77.68,807,175.13,904.49s227,151.13,364.87,151.13S807.41,1002,904.87,904.49,1056,677.45,1056,539.62,1002.32,272.22,904.87,174.76Z"/><circle class="cls-2" cx="540" cy="541.94" r="20.69"/><path class="cls-2" d="M775,134.17v60H764.69V146.52l-9,9.09-7.29-7.29,14.15-14.15Z"/><path class="cls-2" d="M912.05,317.69c-1,1.09-1.93,2.12-2.88,3.09s-1.87,1.94-2.79,2.92H926.2V334H888.37v-7.21l2-1.8,4.46-4.29q2-2,4.46-4.5c1.66-1.69,3.38-3.5,5.15-5.45A112.66,112.66,0,0,0,912,302a60,60,0,0,0,3.9-5.66,16.2,16.2,0,0,0,1.5-3,7.83,7.83,0,0,0,.26-1,9,9,0,0,0-.73-3.6,8.87,8.87,0,0,0-2-3,9.63,9.63,0,0,0-3-2,9,9,0,0,0-3.6-.73,8.9,8.9,0,0,0-3.64.73,9.64,9.64,0,0,0-3,2,8.9,8.9,0,0,0-2,3,9,9,0,0,0-.73,3.6H888.63a19.18,19.18,0,0,1,1.5-7.51,19.6,19.6,0,0,1,4.24-6.3,18.4,18.4,0,0,1,6.35-4.29,20.25,20.25,0,0,1,15.1,0,18.3,18.3,0,0,1,6.35,4.29,19.6,19.6,0,0,1,4.24,6.3,19.18,19.18,0,0,1,1.5,7.51,14.37,14.37,0,0,1-1.33,5.66,40.63,40.63,0,0,1-4.16,7.12A117.58,117.58,0,0,1,912.05,317.69Z"/><path class="cls-2" d="M996.54,519.55l-11.07,13.64a17.75,17.75,0,0,1,4.89,3.52,19.61,19.61,0,0,1,5.75,13.89,19.14,19.14,0,0,1-1.5,7.51,20.69,20.69,0,0,1-4.25,6.39,20.46,20.46,0,0,1-6.39,4.25,19.1,19.1,0,0,1-7.5,1.5,19.61,19.61,0,0,1-13.9-5.75,20.66,20.66,0,0,1-4.24-6.39,19.14,19.14,0,0,1-1.5-7.51h10.29a9,9,0,0,0,.73,3.65,9.52,9.52,0,0,0,2,3,9.67,9.67,0,0,0,3,2,9.49,9.49,0,0,0,7.25,0,9.39,9.39,0,0,0,3-2,9.55,9.55,0,0,0,2-3,9.11,9.11,0,0,0,.73-3.65,9.27,9.27,0,0,0-.73-3.6,9.5,9.5,0,0,0-2-3,9.39,9.39,0,0,0-3-2,9.22,9.22,0,0,0-3.6-.72h-3.35v-8.93h-.25l10.63-13H959.4V509h37.14Z"/><path class="cls-2" d="M931.47,779.17H922.9v14.58H912.6V779.17H884.81v-8.84l24.62-36.62h12.44l-23.68,35.16H912.6V757h10.3v11.83h8.57Z"/><path class="cls-2" d="M775.54,912.45a18.4,18.4,0,0,1,4.29,6.34,20,20,0,0,1,1.46,7.55,19.67,19.67,0,0,1-12.06,18.14,19.1,19.1,0,0,1-7.5,1.51,19.72,19.72,0,0,1-13.9-5.75,20.49,20.49,0,0,1-4.24-6.39,19,19,0,0,1-1.51-7.51h10.3a9,9,0,0,0,.73,3.65,9.53,9.53,0,0,0,5,5,9.37,9.37,0,0,0,7.25,0,8.83,8.83,0,0,0,3-2,9.88,9.88,0,0,0,2-3,9.37,9.37,0,0,0,0-7.25,9.59,9.59,0,0,0-2-3,9,9,0,0,0-3-2,9.23,9.23,0,0,0-3.6-.73H749l-6.69-6.69,8-25.56h30.11V895H757.87l-3.61,11.67h7.47a19.1,19.1,0,0,1,7.5,1.5A19.56,19.56,0,0,1,775.54,912.45Z"/><path class="cls-2" d="M553.4,973.39a19.61,19.61,0,0,1,5.75,13.9,19.1,19.1,0,0,1-1.5,7.5A19.46,19.46,0,0,1,547,1005.43a19.1,19.1,0,0,1-7.5,1.5,19.61,19.61,0,0,1-13.9-5.75,20.64,20.64,0,0,1-4.25-6.39,19.57,19.57,0,0,1,1.42-17.8l18.44-31.3h11.93l-13,21.95a20.07,20.07,0,0,1,7.12,1.63A20.68,20.68,0,0,1,553.4,973.39Zm-13.89,23.25a9.27,9.27,0,0,0,3.6-.73,9.55,9.55,0,0,0,5-5,9.34,9.34,0,0,0,0-7.24,9.43,9.43,0,0,0-2-3,9.31,9.31,0,0,0-3-2,9.09,9.09,0,0,0-3.6-.73,9,9,0,0,0-3.65.73,9.47,9.47,0,0,0-3,2,9.24,9.24,0,0,0-2,3,9.34,9.34,0,0,0,0,7.24,9.35,9.35,0,0,0,2,3,9.67,9.67,0,0,0,3,2A9.15,9.15,0,0,0,539.51,996.64Z"/><path class="cls-2" d="M324,895.63H296.6V885.34H332l6.09,6.09-29.68,54H296.68Z"/><path class="cls-2" d="M186,761.41a19.61,19.61,0,0,1,5.75,13.9,19.1,19.1,0,0,1-1.5,7.5A20.29,20.29,0,0,1,186,789.2,19.56,19.56,0,0,1,172.07,795a19.18,19.18,0,0,1-7.51-1.5,20.69,20.69,0,0,1-6.39-4.25,20.43,20.43,0,0,1-4.24-6.39,19.1,19.1,0,0,1-1.5-7.5,19.65,19.65,0,0,1,5.74-13.9c.23-.23.45-.43.65-.6s.41-.37.64-.6a16.68,16.68,0,0,1-2.79-17.5,16.89,16.89,0,0,1,3.56-5.32,17.23,17.23,0,0,1,5.28-3.56,16.74,16.74,0,0,1,13.08,0,16.46,16.46,0,0,1,8.88,8.88,16.56,16.56,0,0,1-2.79,17.5c.23.23.44.43.64.6A8.51,8.51,0,0,1,186,761.41Zm-13.89,23.25a9,9,0,0,0,3.6-.73,9.28,9.28,0,0,0,3-2,9.55,9.55,0,0,0,2-3,9.34,9.34,0,0,0,0-7.24,9.43,9.43,0,0,0-2-3,9.25,9.25,0,0,0-3-2,9.37,9.37,0,0,0-7.25,0,9.64,9.64,0,0,0-3,2,9.4,9.4,0,0,0-2,3,9.34,9.34,0,0,0,0,7.24,9.52,9.52,0,0,0,2,3,9.67,9.67,0,0,0,3,2A9,9,0,0,0,172.07,784.66Zm-6.43-35.43a6.42,6.42,0,1,0,1.88-4.55A6.2,6.2,0,0,0,165.64,749.23Z"/><path class="cls-2" d="M123,524.67a18.27,18.27,0,0,1-3,10.3L101.6,566.28h-12l13-22a20.31,20.31,0,0,1-7.08-1.63,19.23,19.23,0,0,1-6-4.12,19.72,19.72,0,0,1-5.75-13.9,19.14,19.14,0,0,1,1.51-7.5,20.66,20.66,0,0,1,4.24-6.39,19.61,19.61,0,0,1,13.9-5.75,19.1,19.1,0,0,1,7.5,1.5,20.46,20.46,0,0,1,6.39,4.25,20.69,20.69,0,0,1,4.25,6.39A19.13,19.13,0,0,1,123,524.67Zm-29,0a9,9,0,0,0,.73,3.65,9.53,9.53,0,0,0,5,5,9.37,9.37,0,0,0,7.25,0,9.2,9.2,0,0,0,3-2,9.67,9.67,0,0,0,2-3,9.15,9.15,0,0,0,.73-3.65,9.27,9.27,0,0,0-.73-3.6,9.5,9.5,0,0,0-2-3,9.39,9.39,0,0,0-3-2,9.37,9.37,0,0,0-7.25,0,9.67,9.67,0,0,0-3,2,9.31,9.31,0,0,0-2,3A9.09,9.09,0,0,0,94,524.67Z"/><path class="cls-2" d="M159.89,273.39v60H149.6V285.74l-9,9.09-7.29-7.29,14.15-14.15Z"/><path class="cls-2" d="M189.65,272.19A17.89,17.89,0,0,1,206,281.32a32.17,32.17,0,0,1,3.64,9.95,61.08,61.08,0,0,1,1.16,12.14,66.16,66.16,0,0,1-1.07,12.14,30.34,30.34,0,0,1-3.56,9.9,18.8,18.8,0,0,1-6.52,6.65,21.78,21.78,0,0,1-20.07,0,18.76,18.76,0,0,1-6.52-6.69,30.59,30.59,0,0,1-3.56-9.91,64.45,64.45,0,0,1-1.07-12.09,68,68,0,0,1,1-12.14,30.6,30.6,0,0,1,3.47-9.95,18.28,18.28,0,0,1,6.52-6.69A19.43,19.43,0,0,1,189.65,272.19Zm10,41.34a43.86,43.86,0,0,0,.64-4.76c.14-1.69.22-3.47.22-5.36a52.33,52.33,0,0,0-.86-10.12,31.7,31.7,0,0,0-1-3.69,13.29,13.29,0,0,0-1.46-3,8.85,8.85,0,0,0-2.83-3.09,11.9,11.9,0,0,0-9.69,0,7.51,7.51,0,0,0-2.75,2.92,24.05,24.05,0,0,0-2.14,5.87,46.46,46.46,0,0,0-1,11.11c0,1.89.07,3.67.21,5.36a46.4,46.4,0,0,0,.65,4.76,23.78,23.78,0,0,0,2.4,6.69,8.31,8.31,0,0,0,2.74,3,10.14,10.14,0,0,0,4.89,1,9.82,9.82,0,0,0,4.89-1,7.19,7.19,0,0,0,2.83-3A20.1,20.1,0,0,0,199.69,313.53Z"/><path class="cls-2" d="M313.49,134.17v60H303.2V146.52l-9,9.09-7.29-7.29,14.16-14.15Z"/><path class="cls-2" d="M347.8,134.17v60H337.51V146.52l-9,9.09-7.29-7.29,14.16-14.15Z"/><path class="cls-2" d="M529.24,73.52v60h-10.3V85.87l-9,9.1-7.29-7.3L516.8,73.52Z"/><path class="cls-2" d="M561.49,117.27c-1,1.08-1.93,2.11-2.88,3.08s-1.87,2-2.78,2.92h19.81v10.29H537.81v-7.2l2-1.8,4.46-4.29,4.46-4.5c1.65-1.69,3.37-3.51,5.14-5.45a114.56,114.56,0,0,0,7.55-8.75,60,60,0,0,0,3.9-5.66,16.2,16.2,0,0,0,1.5-3,8.51,8.51,0,0,0,.26-1,9.1,9.1,0,0,0-.73-3.61,8.83,8.83,0,0,0-2-3,10.08,10.08,0,0,0-3-2,9.28,9.28,0,0,0-3.61-.73,9.1,9.1,0,0,0-3.64.73,10.14,10.14,0,0,0-3,2,9,9,0,0,0-2,3,9.28,9.28,0,0,0-.73,3.61H538.07a19.14,19.14,0,0,1,1.5-7.51,19.63,19.63,0,0,1,4.25-6.3,18.27,18.27,0,0,1,6.34-4.29,20.25,20.25,0,0,1,15.1,0,18.3,18.3,0,0,1,6.35,4.29,19.79,19.79,0,0,1,4.25,6.3,19.32,19.32,0,0,1,1.5,7.51A14.59,14.59,0,0,1,576,97.54a41.93,41.93,0,0,1-4.16,7.12A119,119,0,0,1,561.49,117.27Z"/></svg>